<svg width="16" height="16" viewBox="0 0 16 16" fill="none" xmlns="http://www.w3.org/2000/svg">
<path d="M8.92871 9.75684L7.58203 12L8.92871 14.2432L8.07129 14.7568L7 12.9707L5.92871 14.7568L5.07129 14.2432L6.41699 12L5.07129 9.75684L5.92871 9.24316L7 11.0283L8.07129 9.24316L8.92871 9.75684Z" fill="black"/>
<path d="M8.5 5.03223C9.18962 5.10059 9.79942 5.27447 10.3281 5.59375C10.9827 5.98915 11.4699 6.57865 11.835 7.35547C12.548 8.87272 12.8345 11.1961 12.999 14.4746L12.001 14.5254C11.8352 11.222 11.5465 9.09388 10.9297 7.78125C10.6299 7.14333 10.263 6.72295 9.81152 6.4502C9.35746 6.17593 8.77434 6.02414 7.99805 6C7.23587 6.0213 6.65273 6.14533 6.19238 6.38867C5.73905 6.62833 5.36591 7.0043 5.05957 7.60352C4.42514 8.84466 4.10881 10.9654 4 14.5156L3 14.4844C3.10824 10.9533 3.41894 8.61568 4.16895 7.14844C4.55481 6.3936 5.06395 5.85317 5.72461 5.50391C6.2486 5.22691 6.84301 5.08521 7.5 5.02832V3.5H8.5V5.03223Z" fill="black"/>
<path d="M10.5 14.5H9.5V9.5H10.5V14.5Z" fill="black"/>
<path d="M8 1C8.86362 1 9.62213 1.29009 10.166 1.83398C10.7099 2.37787 11 3.13638 11 4H10C10 3.36362 9.79009 2.87213 9.45898 2.54102C9.12787 2.20991 8.63638 2 8 2C7.36364 2 6.87214 2.20992 6.54102 2.54102C6.2099 2.87212 5.99995 3.36365 6 4H5C4.99994 3.13637 5.29008 2.37787 5.83398 1.83398C6.37789 1.29011 7.13639 1 8 1Z" fill="black"/>
</svg>
